<svg width="36" height="36" viewBox="0 0 36 36" fill="none" xmlns="http://www.w3.org/2000/svg">
<path d="M14.0316 31.5C15.0893 32.4335 16.4787 33 18.0004 33C19.522 33 20.9114 32.4335 21.9691 31.5M3.44121 8.72984C3.41969 6.55282 4.59341 4.51987 6.48953 3.45M32.5536 8.72985C32.5751 6.55283 31.4014 4.51988 29.5053 3.45M27.0004 12C27.0004 9.61305 26.0522 7.32387 24.3643 5.63604C22.6765 3.94821 20.3873 3 18.0004 3C15.6134 3 13.3242 3.94821 11.6364 5.63604C9.94859 7.32387 9.00037 9.61305 9.00037 12C9.00037 16.6353 7.83108 19.8089 6.52487 21.9081C5.42306 23.6788 4.87216 24.5642 4.89236 24.8111C4.91473 25.0846 4.97266 25.1889 5.19304 25.3524C5.39206 25.5 6.28926 25.5 8.08366 25.5H27.9171C29.7115 25.5 30.6087 25.5 30.8077 25.3524C31.0281 25.1889 31.086 25.0846 31.1084 24.8111C31.1286 24.5642 30.5777 23.6788 29.4759 21.9081C28.1697 19.8089 27.0004 16.6353 27.0004 12Z" stroke="#17171F" stroke-width="2" stroke-linecap="round" stroke-linejoin="round"/>
</svg>
