<svg width="36" height="36" viewBox="0 0 36 36" fill="none" xmlns="http://www.w3.org/2000/svg">
<path d="M4.5 12L22.5 12M22.5 12C22.5 14.4853 24.5147 16.5 27 16.5C29.4853 16.5 31.5 14.4853 31.5 12C31.5 9.51472 29.4853 7.5 27 7.5C24.5147 7.5 22.5 9.51472 22.5 12ZM13.5 24L31.5 24M13.5 24C13.5 26.4853 11.4853 28.5 9 28.5C6.51472 28.5 4.5 26.4853 4.5 24C4.5 21.5147 6.51472 19.5 9 19.5C11.4853 19.5 13.5 21.5147 13.5 24Z" stroke="#17171F" stroke-width="2" stroke-linecap="round" stroke-linejoin="round"/>
</svg>
