<svg width="36" height="36" viewBox="0 0 36 36" fill="none" xmlns="http://www.w3.org/2000/svg">
<path d="M31.5 18L13.5 18M31.5 9L13.5 9M31.5 27L13.5 27M7.5 18C7.5 18.8284 6.82843 19.5 6 19.5C5.17157 19.5 4.5 18.8284 4.5 18C4.5 17.1716 5.17157 16.5 6 16.5C6.82843 16.5 7.5 17.1716 7.5 18ZM7.5 9C7.5 9.82843 6.82843 10.5 6 10.5C5.17157 10.5 4.5 9.82843 4.5 9C4.5 8.17157 5.17157 7.5 6 7.5C6.82843 7.5 7.5 8.17157 7.5 9ZM7.5 27C7.5 27.8284 6.82843 28.5 6 28.5C5.17157 28.5 4.5 27.8284 4.5 27C4.5 26.1716 5.17157 25.5 6 25.5C6.82843 25.5 7.5 26.1716 7.5 27Z" stroke="#5CE292" stroke-width="2" stroke-linecap="round" stroke-linejoin="round"/>
</svg>
